<mxfile host="app.diagrams.net" modified="2020-11-17T02:51:50.863Z" agent="5.0 (Windows NT 10.0; Win64; x64) AppleWebKit/537.36 (KHTML, like Gecko) Chrome/86.0.4240.198 Safari/537.36" etag="H88F9RptKMFwtNIywOqf" version="13.9.9" type="github">
  <diagram id="C5RBs43oDa-KdzZeNtuy" name="用户端登录流程图">
    <mxGraphModel dx="1038" dy="614" grid="1" gridSize="10" guides="1" tooltips="1" connect="1" arrows="1" fold="1" page="1" pageScale="1" pageWidth="827" pageHeight="1169" background="none" math="0" shadow="0">
      <root>
        <mxCell id="WIyWlLk6GJQsqaUBKTNV-0" />
        <mxCell id="WIyWlLk6GJQsqaUBKTNV-1" parent="WIyWlLk6GJQsqaUBKTNV-0" />
        <mxCell id="lAcniLtq4Itsd-8eF8fw-53" value="是" style="edgeStyle=orthogonalEdgeStyle;rounded=0;orthogonalLoop=1;jettySize=auto;html=1;shadow=0;" edge="1" parent="WIyWlLk6GJQsqaUBKTNV-1" source="lAcniLtq4Itsd-8eF8fw-22" target="lAcniLtq4Itsd-8eF8fw-51">
          <mxGeometry relative="1" as="geometry" />
        </mxCell>
        <mxCell id="lAcniLtq4Itsd-8eF8fw-22" value="是否已授权&lt;br&gt;用户信息？" style="shape=rhombus;html=1;dashed=0;whitespace=wrap;perimeter=rhombusPerimeter;rounded=0;shadow=0;whiteSpace=wrap;" vertex="1" parent="WIyWlLk6GJQsqaUBKTNV-1">
          <mxGeometry x="354.9999999999999" y="70" width="117" height="70" as="geometry" />
        </mxCell>
        <mxCell id="lAcniLtq4Itsd-8eF8fw-51" value="wx.login&lt;br&gt;wx.getUserInfo" style="html=1;dashed=0;whitespace=wrap;rounded=0;shadow=0;whiteSpace=wrap;" vertex="1" parent="WIyWlLk6GJQsqaUBKTNV-1">
          <mxGeometry x="355.0000000000002" y="220.0000000000001" width="117" height="50" as="geometry" />
        </mxCell>
      </root>
    </mxGraphModel>
  </diagram>
</mxfile>
